<svg xmlns="http://www.w3.org/2000/svg" width="25" height="24">
    <path fill-rule="evenodd" d="M22.5 24h-20a2 2 0 0 1-2-2V4.249a2 2 0 0 1 2-1.999h3.25V.75a.75.75 0 1 1 1.5 0v1.5h4.5V.75a.75.75 0 1 1 1.5 0v1.5h4.5V.75a.749.749 0 1 1 1.5 0v1.5h3.25a2 2 0 0 1 2 1.999V22a2 2 0 0 1-2 2zM23 4.249a.5.5 0 0 0-.5-.499h-3.25v1.5a.75.75 0 0 1-1.5 0v-1.5h-4.5v1.5a.75.75 0 0 1-1.5 0v-1.5h-4.5v1.5a.75.75 0 0 1-1.5 0v-1.5H2.5a.5.5 0 0 0-.5.499V22a.5.5 0 0 0 .5.5h20a.5.5 0 0 0 .5-.5V4.249zM16.25 16.5h3v2.25h-3V16.5zm0-3.75h3V15h-3v-2.25zm0-3.75h3v2.25h-3V9zM11 16.5h3v2.25h-3V16.5zm0-3.75h3V15h-3v-2.25zM11 9h3v2.25h-3V9zm-5.25 7.5h3v2.25h-3V16.5zm0-3.75h3V15h-3v-2.25zm0-3.75h3v2.25h-3V9z"/>
</svg>
