<svg xmlns="http://www.w3.org/2000/svg" width="22.219" height="20" viewBox="0 0 22.219 20">
  <metadata><?xpacket begin="﻿" id="W5M0MpCehiHzreSzNTczkc9d"?>
<x:xmpmeta xmlns:x="adobe:ns:meta/" x:xmptk="Adobe XMP Core 5.6-c138 79.159824, 2016/09/14-01:09:01        ">
   <rdf:RDF xmlns:rdf="http://www.w3.org/1999/02/22-rdf-syntax-ns#">
      <rdf:Description rdf:about=""/>
   </rdf:RDF>
</x:xmpmeta>
                                                                                                    
                                                                                                    
                                                                                                    
                                                                                                    
                                                                                                    
                                                                                                    
                                                                                                    
                                                                                                    
                                                                                                    
                                                                                                    
                                                                                                    
                                                                                                    
                                                                                                    
                                                                                                    
                                                                                                    
                                                                                                    
                                                                                                    
                                                                                                    
                                                                                                    
                                                                                                    
                           
<?xpacket end="w"?></metadata>
<defs>
    <style>
      .cls-1 {
        fill: #fff;
        fill-rule: evenodd;
      }
    </style>
  </defs>
  <path id="Forma_1" data-name="Forma 1" class="cls-1" d="M299.318,904.287c-0.129-.085-0.261-0.176-0.4-0.271a4.47,4.47,0,0,0-1.266-.193H297.6c-2.009,0-3.771,1.216-3.771,2.6,0,1.51,1.51,2.692,3.436,2.692,2.541,0,3.829-.876,3.829-2.6a2.145,2.145,0,0,0-.06-0.5A3.535,3.535,0,0,0,299.318,904.287Zm-1.424-5.266h0a1.539,1.539,0,0,0,1.2-.549,3.156,3.156,0,0,0,.581-2.46c-0.228-1.747-1.477-3.2-2.781-3.239l-0.052,0a1.539,1.539,0,0,0-1.185.548,3.053,3.053,0,0,0-.564,2.408c0.228,1.746,1.5,3.254,2.781,3.294h0.018Zm1.8,11.641a8.68,8.68,0,0,1-2.413.326,11.109,11.109,0,0,1-2.709-.323,5.252,5.252,0,0,1-3.426-2.216,2.813,2.813,0,0,1-.369-1.389,3.522,3.522,0,0,1,.354-1.5c0.9-1.921,3.276-3.211,5.907-3.211h0.075a2.335,2.335,0,0,1-.317-1.176,2.478,2.478,0,0,1,.082-0.624,4.738,4.738,0,0,1-4.824-4.747,5.068,5.068,0,0,1,3.653-4.454,5.972,5.972,0,0,1,1.945-.336h5.9a0.464,0.464,0,0,1,.272.84l-1.32.955a0.465,0.465,0,0,1-.272.086h-0.473a4.6,4.6,0,0,1,.968,2.946,4.4,4.4,0,0,1-1.844,3.446c-0.919.716-.955,0.913-0.955,1.322a3.921,3.921,0,0,0,1.358,1.457,4.565,4.565,0,0,1,2.258,4.212C303.539,908.262,302.028,909.982,299.689,910.662Zm13.326-10.121a0.465,0.465,0,0,1-.464.463H309.2v3.355a0.463,0.463,0,0,1-.462.464H307.78a0.463,0.463,0,0,1-.465-0.464V901h-3.353a0.462,0.462,0,0,1-.463-0.463v-0.954a0.464,0.464,0,0,1,.463-0.465h3.353V895.77a0.463,0.463,0,0,1,.465-0.463h0.955a0.463,0.463,0,0,1,.462.463v3.352h3.354a0.465,0.465,0,0,1,.464.463v0.956Z" transform="translate(-290.781 -891)"/>
</svg>
