<svg xmlns="http://www.w3.org/2000/svg" width="22.22" height="20" viewBox="0 0 22.22 20">
  <metadata><?xpacket begin="﻿" id="W5M0MpCehiHzreSzNTczkc9d"?>
<x:xmpmeta xmlns:x="adobe:ns:meta/" x:xmptk="Adobe XMP Core 5.6-c138 79.159824, 2016/09/14-01:09:01        ">
   <rdf:RDF xmlns:rdf="http://www.w3.org/1999/02/22-rdf-syntax-ns#">
      <rdf:Description rdf:about=""/>
   </rdf:RDF>
</x:xmpmeta>
                                                                                                    
                                                                                                    
                                                                                                    
                                                                                                    
                                                                                                    
                                                                                                    
                                                                                                    
                                                                                                    
                                                                                                    
                                                                                                    
                                                                                                    
                                                                                                    
                                                                                                    
                                                                                                    
                                                                                                    
                                                                                                    
                                                                                                    
                                                                                                    
                                                                                                    
                                                                                                    
                           
<?xpacket end="w"?></metadata>
<defs>
    <style>
      .cls-1 {
        fill: #6893e7;
        fill-rule: evenodd;
      }
    </style>
  </defs>
  <path id="Forma_1" data-name="Forma 1" class="cls-1" d="M1319.32,4193.29c-0.13-.09-0.26-0.18-0.4-0.27a4.439,4.439,0,0,0-1.27-.2h-0.05c-2.01,0-3.77,1.22-3.77,2.61,0,1.51,1.51,2.69,3.44,2.69,2.54,0,3.82-.88,3.82-2.6a2.22,2.22,0,0,0-.06-0.51A3.484,3.484,0,0,0,1319.32,4193.29Zm-1.43-5.27h0.01a1.548,1.548,0,0,0,1.2-.55,3.156,3.156,0,0,0,.58-2.46c-0.23-1.74-1.48-3.2-2.78-3.24h-0.06a1.523,1.523,0,0,0-1.18.55,3.062,3.062,0,0,0-.57,2.41c0.23,1.74,1.51,3.25,2.79,3.29h0.01Zm1.8,11.64a8.558,8.558,0,0,1-2.41.33,10.818,10.818,0,0,1-2.71-.33,5.245,5.245,0,0,1-3.43-2.21,2.863,2.863,0,0,1-.37-1.39,3.44,3.44,0,0,1,.36-1.5c0.9-1.92,3.27-3.21,5.9-3.21h0.08a2.3,2.3,0,0,1-.32-1.18,2.7,2.7,0,0,1,.08-0.62,4.745,4.745,0,0,1-4.82-4.75,5.084,5.084,0,0,1,3.65-4.46,6.05,6.05,0,0,1,1.95-.33h5.9a0.462,0.462,0,0,1,.44.32,0.475,0.475,0,0,1-.17.52l-1.32.95a0.439,0.439,0,0,1-.27.09h-0.47a4.638,4.638,0,0,1,.96,2.95,4.382,4.382,0,0,1-1.84,3.44c-0.92.72-.96,0.92-0.96,1.32a3.943,3.943,0,0,0,1.36,1.46,4.556,4.556,0,0,1,2.26,4.21C1323.54,4197.26,1322.03,4198.98,1319.69,4199.66Zm13.32-10.12a0.453,0.453,0,0,1-.46.46h-3.35v3.36a0.461,0.461,0,0,1-.47.46h-0.95a0.461,0.461,0,0,1-.47-0.46V4190h-3.35a0.459,0.459,0,0,1-.46-0.46v-0.95a0.467,0.467,0,0,1,.46-0.47h3.35v-3.35a0.461,0.461,0,0,1,.47-0.46h0.95a0.461,0.461,0,0,1,.47.46v3.35h3.35a0.461,0.461,0,0,1,.46.47v0.95Z" transform="translate(-1310.78 -4180)"/>
</svg>
