<svg xmlns="http://www.w3.org/2000/svg" width="25" height="25">
    <path fill="#D72929" fill-rule="evenodd" d="M12.5 24.502C5.882 24.502.498 19.118.498 12.5S5.882.498 12.5.498 24.502 5.882 24.502 12.5 19.118 24.502 12.5 24.502zm5.225-8.228l-3.809-3.822 3.167-3.167a.985.985 0 0 0-1.391-1.392l-3.165 3.166-2.087-2.094-.759-.666a1 1 0 0 0-1.394-.019c.009-.009.011-.02.019-.028l-.047.047c.008-.008.02-.011.028-.019a1.012 1.012 0 0 0-.275.685c0 .258.098.516.294.714l2.796 2.804-2.536 2.536-.649.742a.98.98 0 0 0-.019 1.364c-.008-.008-.02-.01-.028-.019l.047.047c-.009-.009-.011-.02-.019-.028.189.176.427.27.668.27a.984.984 0 0 0 .696-.289l3.229-3.229 3.812 3.824a1.005 1.005 0 0 0 1.422 0 1.011 1.011 0 0 0 0-1.427z"/>
</svg>
