<svg xmlns="http://www.w3.org/2000/svg" width="21.25" height="12" viewBox="0 0 21.25 12">
  <metadata><?xpacket begin="﻿" id="W5M0MpCehiHzreSzNTczkc9d"?>
<x:xmpmeta xmlns:x="adobe:ns:meta/" x:xmptk="Adobe XMP Core 5.6-c138 79.159824, 2016/09/14-01:09:01        ">
   <rdf:RDF xmlns:rdf="http://www.w3.org/1999/02/22-rdf-syntax-ns#">
      <rdf:Description rdf:about=""/>
   </rdf:RDF>
</x:xmpmeta>
                                                                                                    
                                                                                                    
                                                                                                    
                                                                                                    
                                                                                                    
                                                                                                    
                                                                                                    
                                                                                                    
                                                                                                    
                                                                                                    
                                                                                                    
                                                                                                    
                                                                                                    
                                                                                                    
                                                                                                    
                                                                                                    
                                                                                                    
                                                                                                    
                                                                                                    
                                                                                                    
                           
<?xpacket end="w"?></metadata>
<defs>
    <style>
      .cls-1 {
        fill: #fff;
        fill-rule: evenodd;
      }
    </style>
  </defs>
  <path class="cls-1" d="M186.925,901.974A28.894,28.894,0,0,1,189,904.066a6.042,6.042,0,0,1,.746,1.074,0.769,0.769,0,0,1-.471,1.2l-3.094,0a2.386,2.386,0,0,1-1.969-.8c-0.429-.436-0.825-0.9-1.237-1.352a2.983,2.983,0,0,0-.557-0.495,0.646,0.646,0,0,0-1.03.251,3.245,3.245,0,0,0-.326,1.443,0.82,0.82,0,0,1-.985.953,7.909,7.909,0,0,1-4.427-.951,9.8,9.8,0,0,1-2.979-2.789,37.564,37.564,0,0,1-3.92-6.988c-0.248-.551-0.067-0.847.541-0.857,1.009-.02,2.019-0.018,3.029,0a0.889,0.889,0,0,1,.84.628,18.78,18.78,0,0,0,2.053,3.8,3.25,3.25,0,0,0,.776.852,0.471,0.471,0,0,0,.8-0.236,2.633,2.633,0,0,0,.178-0.8,11.9,11.9,0,0,0-.049-2.8,1.166,1.166,0,0,0-.993-1.066c-0.3-.056-0.252-0.166-0.109-0.335a1.113,1.113,0,0,1,.949-0.472h3.5a0.833,0.833,0,0,1,.748.909l0,3.884a1.136,1.136,0,0,0,.493.993,0.689,0.689,0,0,0,.7-0.342,12.071,12.071,0,0,0,1.969-3.026c0.237-.478.44-0.975,0.638-1.471a0.748,0.748,0,0,1,.79-0.541l3.365,0a1.736,1.736,0,0,1,.3.018,0.583,0.583,0,0,1,.547.894,8.4,8.4,0,0,1-1.338,2.32c-0.561.777-1.161,1.526-1.718,2.308a1.053,1.053,0,0,0,.165,1.692h0Z" transform="translate(-168.656 -894.344)"/>
</svg>
