<svg xmlns="http://www.w3.org/2000/svg" width="21.25" height="12" viewBox="0 0 21.25 12">
  <metadata><?xpacket begin="﻿" id="W5M0MpCehiHzreSzNTczkc9d"?>
<x:xmpmeta xmlns:x="adobe:ns:meta/" x:xmptk="Adobe XMP Core 5.6-c138 79.159824, 2016/09/14-01:09:01        ">
   <rdf:RDF xmlns:rdf="http://www.w3.org/1999/02/22-rdf-syntax-ns#">
      <rdf:Description rdf:about=""/>
   </rdf:RDF>
</x:xmpmeta>
                                                                                                    
                                                                                                    
                                                                                                    
                                                                                                    
                                                                                                    
                                                                                                    
                                                                                                    
                                                                                                    
                                                                                                    
                                                                                                    
                                                                                                    
                                                                                                    
                                                                                                    
                                                                                                    
                                                                                                    
                                                                                                    
                                                                                                    
                                                                                                    
                                                                                                    
                                                                                                    
                           
<?xpacket end="w"?></metadata>
<defs>
    <style>
      .cls-1 {
        fill: #6893e7;
        fill-rule: evenodd;
      }
    </style>
  </defs>
  <path class="cls-1" d="M1206.92,4190.97a27.467,27.467,0,0,1,2.08,2.1,5.713,5.713,0,0,1,.75,1.07,0.766,0.766,0,0,1-.47,1.2h-3.09a2.415,2.415,0,0,1-1.97-.8c-0.43-.44-0.83-0.9-1.24-1.35a2.95,2.95,0,0,0-.56-0.5,0.649,0.649,0,0,0-1.03.25,3.257,3.257,0,0,0-.32,1.44,0.833,0.833,0,0,1-.99.96,8.038,8.038,0,0,1-4.43-.95,9.888,9.888,0,0,1-2.97-2.79,37.834,37.834,0,0,1-3.93-6.99c-0.24-.55-0.06-0.85.55-0.86,1.01-.02,2.01-0.02,3.02,0a0.9,0.9,0,0,1,.85.63,18.341,18.341,0,0,0,2.05,3.8,3.327,3.327,0,0,0,.77.86,0.473,0.473,0,0,0,.8-0.24,2.448,2.448,0,0,0,.18-0.8,11.841,11.841,0,0,0-.05-2.79,1.161,1.161,0,0,0-.99-1.07c-0.3-.06-0.25-0.17-0.11-0.34a1.112,1.112,0,0,1,.95-0.47h3.5a0.827,0.827,0,0,1,.74.91l0.01,3.89a1.112,1.112,0,0,0,.49.99,0.7,0.7,0,0,0,.7-0.34,12.144,12.144,0,0,0,1.97-3.03c0.23-.48.44-0.97,0.64-1.47a0.735,0.735,0,0,1,.79-0.54h3.36a1.514,1.514,0,0,1,.3.02,0.584,0.584,0,0,1,.55.89,8.512,8.512,0,0,1-1.34,2.32c-0.56.78-1.16,1.53-1.72,2.31a1.054,1.054,0,0,0,.16,1.69h0Z" transform="translate(-1188.66 -4183.34)"/>
</svg>
