<svg xmlns="http://www.w3.org/2000/svg" width="20" height="14" viewBox="0 0 20 14">
  <metadata><?xpacket begin="﻿" id="W5M0MpCehiHzreSzNTczkc9d"?>
<x:xmpmeta xmlns:x="adobe:ns:meta/" x:xmptk="Adobe XMP Core 5.6-c138 79.159824, 2016/09/14-01:09:01        ">
   <rdf:RDF xmlns:rdf="http://www.w3.org/1999/02/22-rdf-syntax-ns#">
      <rdf:Description rdf:about=""/>
   </rdf:RDF>
</x:xmpmeta>
                                                                                                    
                                                                                                    
                                                                                                    
                                                                                                    
                                                                                                    
                                                                                                    
                                                                                                    
                                                                                                    
                                                                                                    
                                                                                                    
                                                                                                    
                                                                                                    
                                                                                                    
                                                                                                    
                                                                                                    
                                                                                                    
                                                                                                    
                                                                                                    
                                                                                                    
                                                                                                    
                           
<?xpacket end="w"?></metadata>
<defs>
    <style>
      .cls-1 {
        fill: #fff;
        fill-rule: evenodd;
      }
    </style>
  </defs>
  <path id="Forma_1" data-name="Forma 1" class="cls-1" d="M250.143,895.264a2.531,2.531,0,0,0-2.16-1.975,66.886,66.886,0,0,0-7.481-.278,66.9,66.9,0,0,0-7.482.278,2.53,2.53,0,0,0-2.159,1.975,32.387,32.387,0,0,0,0,9.5,2.528,2.528,0,0,0,2.159,1.974,66.666,66.666,0,0,0,7.482.278,66.639,66.639,0,0,0,7.481-.278,2.53,2.53,0,0,0,2.16-1.974A32.664,32.664,0,0,0,250.143,895.264ZM237.92,903.13v-6.643l6.352,3.332Z" transform="translate(-230.5 -893)"/>
</svg>
