<svg xmlns="http://www.w3.org/2000/svg" width="20" height="14" viewBox="0 0 20 14">
  <metadata><?xpacket begin="﻿" id="W5M0MpCehiHzreSzNTczkc9d"?>
<x:xmpmeta xmlns:x="adobe:ns:meta/" x:xmptk="Adobe XMP Core 5.6-c138 79.159824, 2016/09/14-01:09:01        ">
   <rdf:RDF xmlns:rdf="http://www.w3.org/1999/02/22-rdf-syntax-ns#">
      <rdf:Description rdf:about=""/>
   </rdf:RDF>
</x:xmpmeta>
                                                                                                    
                                                                                                    
                                                                                                    
                                                                                                    
                                                                                                    
                                                                                                    
                                                                                                    
                                                                                                    
                                                                                                    
                                                                                                    
                                                                                                    
                                                                                                    
                                                                                                    
                                                                                                    
                                                                                                    
                                                                                                    
                                                                                                    
                                                                                                    
                                                                                                    
                                                                                                    
                           
<?xpacket end="w"?></metadata>
<defs>
    <style>
      .cls-1 {
        fill: #6893e7;
        fill-rule: evenodd;
      }
    </style>
  </defs>
  <path id="Forma_1" data-name="Forma 1" class="cls-1" d="M1270.14,4184.26a2.529,2.529,0,0,0-2.16-1.97,100.051,100.051,0,0,0-14.96,0,2.54,2.54,0,0,0-2.16,1.97,32.407,32.407,0,0,0,0,9.5,2.528,2.528,0,0,0,2.16,1.98,103.747,103.747,0,0,0,14.96,0,2.55,2.55,0,0,0,2.16-1.98A32.407,32.407,0,0,0,1270.14,4184.26Zm-12.22,7.87v-6.64c2.12,1.11,4.22,2.21,6.35,3.33C1262.15,4189.93,1260.04,4191.02,1257.92,4192.13Z" transform="translate(-1250.5 -4182)"/>
</svg>
