<svg width="77" height="60" viewBox="0 0 77 60" xmlns="http://www.w3.org/2000/svg" xmlns:xlink="http://www.w3.org/1999/xlink"><svg width="11.44" height="20" viewBox="-2 -2 11.44 20" id="fb" y="40" xmlns="http://www.w3.org/2000/svg"><defs><style>.acls-1{fill:#fff;fill-rule:evenodd}</style></defs><path id="aForma_1" data-name="Forma 1" class="acls-1" d="M117.881 895.1v2.2h-1.614v2.7h1.614v8h3.319v-8h2.224s.208-1.291.309-2.7h-2.521v-1.85a.784.784 0 0 1 .719-.646h1.806V892h-2.456c-3.481 0-3.4 2.7-3.4 3.1z" transform="translate(-116.281 -892)"/></svg><svg width="11.44" height="20" viewBox="-2 -2 11.44 20" id="fb_blue" x="11.44" y="40" xmlns="http://www.w3.org/2000/svg"><defs><style>.bcls-1{fill:#6893e7;fill-rule:evenodd}</style></defs><path id="bForma_1" data-name="Forma 1" class="bcls-1" d="M1137.88 4184.1v2.2h-1.61v2.69h1.61v8.01h3.32v-8h2.22s.21-1.3.31-2.71h-2.52v-1.84a.781.781 0 0 1 .72-.65h1.8v-2.8h-2.45c-3.48 0-3.4 2.7-3.4 3.1z" transform="translate(-1136.28 -4181)"/></svg><svg width="26.22" height="24" viewBox="-2 -2 26.22 24" id="google" xmlns="http://www.w3.org/2000/svg"><defs><style>.ccls-1{fill:#fff;fill-rule:evenodd}</style></defs><path id="cForma_1" data-name="Forma 1" class="ccls-1" d="M299.318 904.287c-.129-.085-.261-.176-.4-.271a4.47 4.47 0 0 0-1.266-.193h-.052c-2.009 0-3.771 1.216-3.771 2.6 0 1.51 1.51 2.692 3.436 2.692 2.541 0 3.829-.876 3.829-2.6a2.145 2.145 0 0 0-.06-.5 3.535 3.535 0 0 0-1.716-1.728zm-1.424-5.266a1.539 1.539 0 0 0 1.2-.549 3.156 3.156 0 0 0 .581-2.46c-.228-1.747-1.477-3.2-2.781-3.239h-.052a1.539 1.539 0 0 0-1.185.548 3.053 3.053 0 0 0-.564 2.408c.228 1.746 1.5 3.254 2.781 3.294h.018zm1.8 11.641a8.68 8.68 0 0 1-2.413.326 11.109 11.109 0 0 1-2.709-.323 5.252 5.252 0 0 1-3.426-2.216 2.813 2.813 0 0 1-.369-1.389 3.522 3.522 0 0 1 .354-1.5c.9-1.921 3.276-3.211 5.907-3.211h.075a2.335 2.335 0 0 1-.317-1.176 2.478 2.478 0 0 1 .082-.624 4.738 4.738 0 0 1-4.824-4.747 5.068 5.068 0 0 1 3.653-4.454 5.972 5.972 0 0 1 1.945-.336h5.9a.464.464 0 0 1 .272.84l-1.32.955a.465.465 0 0 1-.272.086h-.473a4.6 4.6 0 0 1 .968 2.946 4.4 4.4 0 0 1-1.844 3.446c-.919.716-.955.913-.955 1.322a3.921 3.921 0 0 0 1.358 1.457 4.565 4.565 0 0 1 2.258 4.212c-.005 1.986-1.516 3.706-3.855 4.386zm13.326-10.121a.465.465 0 0 1-.464.463H309.2v3.355a.463.463 0 0 1-.462.464h-.958a.463.463 0 0 1-.465-.464V901h-3.353a.462.462 0 0 1-.463-.463v-.954a.464.464 0 0 1 .463-.465h3.353v-3.348a.463.463 0 0 1 .465-.463h.955a.463.463 0 0 1 .462.463v3.352h3.354a.465.465 0 0 1 .464.463v.956z" transform="translate(-290.781 -891)"/></svg><svg width="26.22" height="24" viewBox="-2 -2 26.22 24" id="google_blue" x="26.22" xmlns="http://www.w3.org/2000/svg"><defs><style>.dcls-1{fill:#6893e7;fill-rule:evenodd}</style></defs><path id="dForma_1" data-name="Forma 1" class="dcls-1" d="M1319.32 4193.29c-.13-.09-.26-.18-.4-.27a4.439 4.439 0 0 0-1.27-.2h-.05c-2.01 0-3.77 1.22-3.77 2.61 0 1.51 1.51 2.69 3.44 2.69 2.54 0 3.82-.88 3.82-2.6a2.22 2.22 0 0 0-.06-.51 3.484 3.484 0 0 0-1.71-1.72zm-1.43-5.27h.01a1.548 1.548 0 0 0 1.2-.55 3.156 3.156 0 0 0 .58-2.46c-.23-1.74-1.48-3.2-2.78-3.24h-.06a1.523 1.523 0 0 0-1.18.55 3.062 3.062 0 0 0-.57 2.41c.23 1.74 1.51 3.25 2.79 3.29h.01zm1.8 11.64a8.558 8.558 0 0 1-2.41.33 10.818 10.818 0 0 1-2.71-.33 5.245 5.245 0 0 1-3.43-2.21 2.863 2.863 0 0 1-.37-1.39 3.44 3.44 0 0 1 .36-1.5c.9-1.92 3.27-3.21 5.9-3.21h.08a2.3 2.3 0 0 1-.32-1.18 2.7 2.7 0 0 1 .08-.62 4.745 4.745 0 0 1-4.82-4.75 5.084 5.084 0 0 1 3.65-4.46 6.05 6.05 0 0 1 1.95-.33h5.9a.462.462 0 0 1 .44.32.475.475 0 0 1-.17.52l-1.32.95a.439.439 0 0 1-.27.09h-.47a4.638 4.638 0 0 1 .96 2.95 4.382 4.382 0 0 1-1.84 3.44c-.92.72-.96.92-.96 1.32a3.943 3.943 0 0 0 1.36 1.46 4.556 4.556 0 0 1 2.26 4.21c0 1.99-1.51 3.71-3.85 4.39zm13.32-10.12a.453.453 0 0 1-.46.46h-3.35v3.36a.461.461 0 0 1-.47.46h-.95a.461.461 0 0 1-.47-.46V4190h-3.35a.459.459 0 0 1-.46-.46v-.95a.467.467 0 0 1 .46-.47h3.35v-3.35a.461.461 0 0 1 .47-.46h.95a.461.461 0 0 1 .47.46v3.35h3.35a.461.461 0 0 1 .46.47v.95z" transform="translate(-1310.78 -4180)"/></svg><svg width="25.25" height="16" viewBox="-2 -2 25.25 16" id="vk" y="24" xmlns="http://www.w3.org/2000/svg"><defs><style>.ecls-1{fill:#fff;fill-rule:evenodd}</style></defs><path class="ecls-1" d="M18.269 7.63a28.894 28.894 0 0 1 2.075 2.092 6.042 6.042 0 0 1 .746 1.074.769.769 0 0 1-.471 1.2h-3.094a2.386 2.386 0 0 1-1.969-.8c-.429-.436-.825-.9-1.237-1.352a2.983 2.983 0 0 0-.557-.495.646.646 0 0 0-1.03.251 3.245 3.245 0 0 0-.326 1.443.82.82 0 0 1-.985.953 7.909 7.909 0 0 1-4.427-.951 9.8 9.8 0 0 1-2.979-2.789 37.564 37.564 0 0 1-3.92-6.988C-.153.717.028.421.636.411a80.488 80.488 0 0 1 3.029 0 .889.889 0 0 1 .84.628 18.78 18.78 0 0 0 2.053 3.8 3.25 3.25 0 0 0 .776.852.471.471 0 0 0 .8-.236 2.633 2.633 0 0 0 .178-.8 11.9 11.9 0 0 0-.049-2.8A1.166 1.166 0 0 0 7.27.789c-.3-.056-.252-.166-.109-.335a1.113 1.113 0 0 1 .949-.472h3.5a.833.833 0 0 1 .748.909v3.884a1.136 1.136 0 0 0 .493.993.689.689 0 0 0 .7-.342A12.071 12.071 0 0 0 15.52 2.4c.237-.478.44-.975.638-1.471a.748.748 0 0 1 .79-.541h3.365a1.736 1.736 0 0 1 .3.018.583.583 0 0 1 .547.894 8.4 8.4 0 0 1-1.338 2.32c-.561.777-1.161 1.526-1.718 2.308a1.053 1.053 0 0 0 .165 1.692z"/></svg><svg width="25.25" height="16" viewBox="-2 -2 25.25 16" id="vk_blue" x="25.25" y="24" xmlns="http://www.w3.org/2000/svg"><defs><style>.fcls-1{fill:#6893e7;fill-rule:evenodd}</style></defs><path class="fcls-1" d="M18.26 7.63a27.467 27.467 0 0 1 2.08 2.1 5.713 5.713 0 0 1 .75 1.07.766.766 0 0 1-.47 1.2h-3.09a2.415 2.415 0 0 1-1.97-.8c-.43-.44-.83-.9-1.24-1.35a2.95 2.95 0 0 0-.56-.5.649.649 0 0 0-1.03.25 3.257 3.257 0 0 0-.32 1.44.833.833 0 0 1-.99.96 8.038 8.038 0 0 1-4.43-.95 9.888 9.888 0 0 1-2.97-2.79A37.834 37.834 0 0 1 .09 1.27C-.15.72.03.42.64.41 1.65.39 2.65.39 3.66.41a.9.9 0 0 1 .85.63 18.341 18.341 0 0 0 2.05 3.8 3.327 3.327 0 0 0 .77.86.473.473 0 0 0 .8-.24 2.448 2.448 0 0 0 .18-.8 11.841 11.841 0 0 0-.05-2.79A1.161 1.161 0 0 0 7.27.8c-.3-.06-.25-.17-.11-.34a1.112 1.112 0 0 1 .95-.47h3.5a.827.827 0 0 1 .74.91l.01 3.89a1.112 1.112 0 0 0 .49.99.7.7 0 0 0 .7-.34 12.144 12.144 0 0 0 1.97-3.03c.23-.48.44-.97.64-1.47a.735.735 0 0 1 .79-.54h3.36a1.514 1.514 0 0 1 .3.02.584.584 0 0 1 .55.89 8.512 8.512 0 0 1-1.34 2.32c-.56.78-1.16 1.53-1.72 2.31a1.054 1.054 0 0 0 .16 1.69z"/></svg><svg width="24" height="18" viewBox="-2 -2 24 18" id="youtybe" x="52.44" xmlns="http://www.w3.org/2000/svg"><defs><style>.gcls-1{fill:#fff;fill-rule:evenodd}</style></defs><path id="gForma_1" data-name="Forma 1" class="gcls-1" d="M250.143 895.264a2.531 2.531 0 0 0-2.16-1.975 66.886 66.886 0 0 0-7.481-.278 66.9 66.9 0 0 0-7.482.278 2.53 2.53 0 0 0-2.159 1.975 32.387 32.387 0 0 0 0 9.5 2.528 2.528 0 0 0 2.159 1.974 66.666 66.666 0 0 0 7.482.278 66.639 66.639 0 0 0 7.481-.278 2.53 2.53 0 0 0 2.16-1.974 32.664 32.664 0 0 0 0-9.5zm-12.223 7.866v-6.643l6.352 3.332z" transform="translate(-230.5 -893)"/></svg><svg width="24" height="18" viewBox="-2 -2 24 18" id="youtybe_blue" x="52.44" y="18" xmlns="http://www.w3.org/2000/svg"><defs><style>.hcls-1{fill:#6893e7;fill-rule:evenodd}</style></defs><path id="hForma_1" data-name="Forma 1" class="hcls-1" d="M1270.14 4184.26a2.529 2.529 0 0 0-2.16-1.97 100.051 100.051 0 0 0-14.96 0 2.54 2.54 0 0 0-2.16 1.97 32.407 32.407 0 0 0 0 9.5 2.528 2.528 0 0 0 2.16 1.98 103.747 103.747 0 0 0 14.96 0 2.55 2.55 0 0 0 2.16-1.98 32.407 32.407 0 0 0 0-9.5zm-12.22 7.87v-6.64c2.12 1.11 4.22 2.21 6.35 3.33-2.12 1.11-4.23 2.2-6.35 3.31z" transform="translate(-1250.5 -4182)"/></svg></svg>