<svg width="63" height="42" viewBox="0 0 63 42" xmlns="http://www.w3.org/2000/svg" xmlns:xlink="http://www.w3.org/1999/xlink"><svg width="11.44" height="20" viewBox="-2 -2 11.44 20" id="fb_blue" x="51.47" xmlns="http://www.w3.org/2000/svg"><defs><style>.acls-1{fill:#6893e7;fill-rule:evenodd}</style></defs><path id="aForma_1" data-name="Forma 1" class="acls-1" d="M1137.88 4184.1v2.2h-1.61v2.69h1.61v8.01h3.32v-8h2.22s.21-1.3.31-2.71h-2.52v-1.84a.781.781 0 0 1 .72-.65h1.8v-2.8h-2.45c-3.48 0-3.4 2.7-3.4 3.1z" transform="translate(-1136.28 -4181)"/></svg><svg width="26.22" height="24" viewBox="-2 -2 26.22 24" id="google_blue" xmlns="http://www.w3.org/2000/svg"><defs><style>.bcls-1{fill:#6893e7;fill-rule:evenodd}</style></defs><path id="bForma_1" data-name="Forma 1" class="bcls-1" d="M1319.32 4193.29c-.13-.09-.26-.18-.4-.27a4.439 4.439 0 0 0-1.27-.2h-.05c-2.01 0-3.77 1.22-3.77 2.61 0 1.51 1.51 2.69 3.44 2.69 2.54 0 3.82-.88 3.82-2.6a2.22 2.22 0 0 0-.06-.51 3.484 3.484 0 0 0-1.71-1.72zm-1.43-5.27h.01a1.548 1.548 0 0 0 1.2-.55 3.156 3.156 0 0 0 .58-2.46c-.23-1.74-1.48-3.2-2.78-3.24h-.06a1.523 1.523 0 0 0-1.18.55 3.062 3.062 0 0 0-.57 2.41c.23 1.74 1.51 3.25 2.79 3.29h.01zm1.8 11.64a8.558 8.558 0 0 1-2.41.33 10.818 10.818 0 0 1-2.71-.33 5.245 5.245 0 0 1-3.43-2.21 2.863 2.863 0 0 1-.37-1.39 3.44 3.44 0 0 1 .36-1.5c.9-1.92 3.27-3.21 5.9-3.21h.08a2.3 2.3 0 0 1-.32-1.18 2.7 2.7 0 0 1 .08-.62 4.745 4.745 0 0 1-4.82-4.75 5.084 5.084 0 0 1 3.65-4.46 6.05 6.05 0 0 1 1.95-.33h5.9a.462.462 0 0 1 .44.32.475.475 0 0 1-.17.52l-1.32.95a.439.439 0 0 1-.27.09h-.47a4.638 4.638 0 0 1 .96 2.95 4.382 4.382 0 0 1-1.84 3.44c-.92.72-.96.92-.96 1.32a3.943 3.943 0 0 0 1.36 1.46 4.556 4.556 0 0 1 2.26 4.21c0 1.99-1.51 3.71-3.85 4.39zm13.32-10.12a.453.453 0 0 1-.46.46h-3.35v3.36a.461.461 0 0 1-.47.46h-.95a.461.461 0 0 1-.47-.46V4190h-3.35a.459.459 0 0 1-.46-.46v-.95a.467.467 0 0 1 .46-.47h3.35v-3.35a.461.461 0 0 1 .47-.46h.95a.461.461 0 0 1 .47.46v3.35h3.35a.461.461 0 0 1 .46.47v.95z" transform="translate(-1310.78 -4180)"/></svg><svg width="25.25" height="16" viewBox="-2 -2 25.25 16" id="vk_blue" x="26.22" xmlns="http://www.w3.org/2000/svg"><defs><style>.ccls-1{fill:#6893e7;fill-rule:evenodd}</style></defs><path class="ccls-1" d="M18.26 7.63a27.467 27.467 0 0 1 2.08 2.1 5.713 5.713 0 0 1 .75 1.07.766.766 0 0 1-.47 1.2h-3.09a2.415 2.415 0 0 1-1.97-.8c-.43-.44-.83-.9-1.24-1.35a2.95 2.95 0 0 0-.56-.5.649.649 0 0 0-1.03.25 3.257 3.257 0 0 0-.32 1.44.833.833 0 0 1-.99.96 8.038 8.038 0 0 1-4.43-.95 9.888 9.888 0 0 1-2.97-2.79A37.834 37.834 0 0 1 .09 1.27C-.15.72.03.42.64.41 1.65.39 2.65.39 3.66.41a.9.9 0 0 1 .85.63 18.341 18.341 0 0 0 2.05 3.8 3.327 3.327 0 0 0 .77.86.473.473 0 0 0 .8-.24 2.448 2.448 0 0 0 .18-.8 11.841 11.841 0 0 0-.05-2.79A1.161 1.161 0 0 0 7.27.8c-.3-.06-.25-.17-.11-.34a1.112 1.112 0 0 1 .95-.47h3.5a.827.827 0 0 1 .74.91l.01 3.89a1.112 1.112 0 0 0 .49.99.7.7 0 0 0 .7-.34 12.144 12.144 0 0 0 1.97-3.03c.23-.48.44-.97.64-1.47a.735.735 0 0 1 .79-.54h3.36a1.514 1.514 0 0 1 .3.02.584.584 0 0 1 .55.89 8.512 8.512 0 0 1-1.34 2.32c-.56.78-1.16 1.53-1.72 2.31a1.054 1.054 0 0 0 .16 1.69z"/></svg><svg width="24" height="18" viewBox="-2 -2 24 18" id="youtybe_blue" y="24" xmlns="http://www.w3.org/2000/svg"><defs><style>.dcls-1{fill:#6893e7;fill-rule:evenodd}</style></defs><path id="dForma_1" data-name="Forma 1" class="dcls-1" d="M1270.14 4184.26a2.529 2.529 0 0 0-2.16-1.97 100.051 100.051 0 0 0-14.96 0 2.54 2.54 0 0 0-2.16 1.97 32.407 32.407 0 0 0 0 9.5 2.528 2.528 0 0 0 2.16 1.98 103.747 103.747 0 0 0 14.96 0 2.55 2.55 0 0 0 2.16-1.98 32.407 32.407 0 0 0 0-9.5zm-12.22 7.87v-6.64c2.12 1.11 4.22 2.21 6.35 3.33-2.12 1.11-4.23 2.2-6.35 3.31z" transform="translate(-1250.5 -4182)"/></svg></svg>