<svg width="88" height="88" viewBox="0 0 88 88" xmlns="http://www.w3.org/2000/svg" xmlns:xlink="http://www.w3.org/1999/xlink"><svg width="44" height="44" viewBox="-2 -2 44 44" id="i-1" xmlns="http://www.w3.org/2000/svg"><path d="M20 39c10.48 0 19-8.52 19-19S30.48 1 20 1 1 9.52 1 20s8.52 19 19 19m0 1C8.95 40 0 31.05 0 20S8.95 0 20 0s20 8.95 20 20-8.95 20-20 20z" fill="#FFF"/></svg><svg width="44" height="44" viewBox="-2 -2 44 44" id="i-2" x="44" xmlns="http://www.w3.org/2000/svg"><path d="M20 39c10.48 0 19-8.52 19-19S30.48 1 20 1 1 9.52 1 20s8.52 19 19 19m0 1C8.95 40 0 31.05 0 20S8.95 0 20 0s20 8.95 20 20-8.95 20-20 20z" fill="#FFF"/></svg><svg width="44" height="44" viewBox="-2 -2 44 44" id="i-3" y="44" xmlns="http://www.w3.org/2000/svg"><path d="M20 39c10.48 0 19-8.52 19-19S30.48 1 20 1 1 9.52 1 20s8.52 19 19 19m0 1C8.95 40 0 31.05 0 20S8.95 0 20 0s20 8.95 20 20-8.95 20-20 20z" fill="#FFF"/></svg><svg width="44" height="44" viewBox="-2 -2 44 44" id="i-4" x="44" y="44" xmlns="http://www.w3.org/2000/svg"><path d="M20 39c10.48 0 19-8.52 19-19S30.48 1 20 1 1 9.52 1 20s8.52 19 19 19m0 1C8.95 40 0 31.05 0 20S8.95 0 20 0s20 8.95 20 20-8.95 20-20 20z" fill="#FFF"/></svg></svg>