<svg xmlns="http://www.w3.org/2000/svg" width="80" height="72">
    <path fill="#DCC142" fill-rule="evenodd" d="M79.985 24c-.132-2.281-2.845-4.064-8.272-5.424.183-.4.286-.816.287-1.248V8h-.023C71.5.229 39.657 0 36 0 32.342 0 .5.229.023 8H0v9.332c.006 2.533 3.276 4.516 8.14 5.992a2.89 2.89 0 0 0-.12.676H8v9.316C2.76 34.665.142 36.422.013 38.667H0v9.332c.004 1.763 1.595 3.26 4.197 4.506-.099.271-.16.547-.177.83H4v9.331c.01 4.435 9.996 7.189 21.091 8.474.081.016.156.049.242.049.026 0 .047-.013.072-.015 2.139.242 4.312.43 6.463.565.045.005.085.026.132.026.025 0 .045-.013.069-.014C34.8 71.916 37.487 72 40 72s5.2-.084 7.931-.251c.024.002.045.015.069.015.046 0 .087-.023.132-.027 2.151-.135 4.324-.321 6.463-.564.025 0 .046.014.072.014.086 0 .161-.034.242-.05 11.095-1.285 21.079-4.04 21.091-8.476v-9.328h-.022c-.093-1.634-1.486-2.998-4.238-4.139.168-.385.26-.785.26-1.199V39.28c4.787-1.472 7.993-3.442 8-5.952V24h-.015zM69.189 48.428l-.454.399c-.701.617-1.867 1.24-3.402 1.839v-6.357c1.585-.552 2.935-1.164 4-1.835v5.518c0 .137-.05.284-.144.436zm-29.821 6.196c-.195.005-.391.008-.587.012-.476.009-.964.012-1.447.016v-6.66c.367-.004.734-.01 1.101-.016l.211-.004c1.343-.025 2.686-.067 4.022-.128v6.657a118.596 118.596 0 0 1-3.3.123zm-5.823.019c-.61-.011-1.218-.026-1.823-.045l-.223-.007c-.727-.025-1.449-.055-2.165-.09v-6.656a137.691 137.691 0 0 0 4.233.132c.366.007.733.012 1.099.016v6.664c-.258-.003-.517-.003-.774-.007-.118-.002-.231-.006-.347-.007zM9.462 51.602a4.854 4.854 0 0 0-.129-.037v-6.441a59.77 59.77 0 0 0 4 .921v6.508a61.667 61.667 0 0 1-3.381-.813c-.163-.047-.331-.091-.49-.138zm28.104 11.042c.367.006.734.012 1.101.016v6.665c-1.843-.017-3.622-.07-5.334-.155v-6.657c1.336.063 2.679.104 4.022.128l.211.003zm5.079-.004a153.25 153.25 0 0 0 4.021-.128v6.657c-1.711.084-3.49.138-5.333.155v-6.665c.367-.004.734-.01 1.1-.016.071 0 .141-.002.212-.003zm10.688-.603v6.621a114.45 114.45 0 0 1-4 .351V62.36c1.352-.088 2.688-.196 4-.323zM56 61.749a98.41 98.41 0 0 0 4-.562v6.546a91.397 91.397 0 0 1-4 .611v-6.595zm6.666-1.038a59.787 59.787 0 0 0 4.001-.922v6.441a58.379 58.379 0 0 1-4.001.989v-6.508zm-45.333 0v6.508a58.342 58.342 0 0 1-4-.989v-6.441a59.14 59.14 0 0 0 4 .922zm2.667.477c1.291.209 2.625.397 4 .563v6.594a91.166 91.166 0 0 1-4-.611v-6.546zm6.667.849c1.311.127 2.648.235 3.999.324v6.649a114.444 114.444 0 0 1-3.999-.35v-6.623zm-3.308-7.973l-.406-.041c-.096-.01-.19-.022-.286-.031v-6.62a130.6 130.6 0 0 0 4 .324v6.644c-1.12-.08-2.227-.171-3.308-.276zM20 47.082v6.595a92.747 92.747 0 0 1-4-.61V46.52a96.44 96.44 0 0 0 4 .562zm26.221 7.195c-.293.023-.589.046-.888.067v-6.649a130.6 130.6 0 0 0 4-.324v6.621c-.824.087-1.666.168-2.532.238-.193.018-.386.032-.58.047zm5.779-.6v-6.595a98.66 98.66 0 0 0 4-.562v6.547a91.445 91.445 0 0 1-4 .61zm6.666-7.633a59.77 59.77 0 0 0 4-.921v6.441a58.816 58.816 0 0 1-4 .988v-6.508zm-18.233-6.091a128.57 128.57 0 0 1-2.945-.11c-.052-.003-.104-.006-.155-.007v-6.658c1.336.063 2.679.105 4.022.128l.21.005 1.1.015v6.658c-.649-.007-1.304-.01-1.937-.024l-.295-.007zm-31.1-19.054v-6.442c1.245.336 2.584.643 4 .921v6.508c-.164-.034-.333-.069-.493-.104a54.23 54.23 0 0 1-3.507-.883zm24.234-3.589c.366.007.733.013 1.099.016v6.658a131.637 131.637 0 0 1-5.333-.152V17.18c1.336.062 2.679.104 4.021.128l.213.002zm5.078-.003c1.343-.026 2.685-.067 4.022-.128v6.652c-.227.01-.445.026-.673.037l-.057.002c-.895.04-1.807.07-2.731.091l-.432.01c-.474.009-.959.01-1.441.016v-6.661a100.866 100.866 0 0 0 1.312-.019zm30.383.669l-.037-.008-.486.377c-.704.548-1.785 1.103-3.172 1.639v-6.343c1.585-.552 2.935-1.164 4-1.834v5.517c0 .202-.106.421-.305.652zM52 23.002v-6.586a98.633 98.633 0 0 0 4-.563v6.536c-1.264.224-2.595.43-4 .613zm6.666-1.126v-6.498a59.156 59.156 0 0 0 4-.921v6.427c-1.194.348-2.539.68-4 .992zm-9.333-5.172v6.613c-1.288.136-2.621.255-4 .354v-6.643c1.352-.09 2.688-.198 4-.324zM22.667 23.32v-6.616c1.312.126 2.648.234 4 .324v6.637a120.76 120.76 0 0 1-4-.345zM20 16.416v6.588c-.264-.035-.539-.063-.8-.099l-.502-.073a99.123 99.123 0 0 1-2.262-.353L16 22.401v-6.546a98.19 98.19 0 0 0 4 .561zm14.336 23.236l-.54-.04c-.853-.067-1.687-.14-2.5-.221l-.523-.054c-.036-.004-.071-.009-.107-.012v-6.621a130.6 130.6 0 0 0 4 .324v6.645c-.108-.008-.222-.013-.33-.021zm-8.81-.996c-.527-.084-1.023-.175-1.526-.263v-6.539c1.291.21 2.625.398 4 .563v6.595a101.748 101.748 0 0 1-2.474-.356zm-4.193-7.279v6.498a56.814 56.814 0 0 1-4-1.002v-6.417c1.246.336 2.584.644 4 .921zm-6.667-1.736v6.335c-2.096-.81-3.447-1.636-3.888-2.372l-.089-.149c-.008-.042-.021-.086-.022-.127v-5.522c1.065.671 2.414 1.283 3.999 1.835zm31.979 3.665c1.343-.025 2.686-.066 4.022-.128v6.651c-1.752.087-3.534.135-5.334.154v-6.657c.367-.004.734-.009 1.1-.015l.212-.005zm17.231 5.117c-.586.101-1.176.201-1.783.293-.348.053-.704.104-1.061.154-.338.049-.688.09-1.031.134v-6.588a98.135 98.135 0 0 0 4-.563V38.4a6.71 6.71 0 0 1-.125.023zm-9.028 1.138c-.498.041-1.011.068-1.515.104v-6.637a127.51 127.51 0 0 0 4-.324v6.614c-.774.082-1.548.163-2.344.23l-.141.013zm15.237-2.5c-.664.186-1.367.359-2.084.528-.332.077-.67.155-1.017.23-.103.022-.212.042-.316.065v-6.505a59.753 59.753 0 0 0 4-.922v6.442l-.583.162zm7.233-12.975c-.122.906-2.174 2.11-5.837 3.242-4.717 1.457-12.098 2.792-21.453 3.205-.479.02-.956.04-1.444.056-.399.014-.799.026-1.206.036-1.104.024-2.224.041-3.378.041-1.155 0-2.275-.017-3.379-.042-.405-.009-.805-.023-1.205-.036-.489-.015-.967-.036-1.444-.056-9.355-.413-16.737-1.748-21.453-3.206-3.634-1.122-5.682-2.317-5.834-3.218.007-.026.007-.047.023-.079.091.023.192.041.284.064.521.124 1.056.244 1.6.359 2.649.57 5.585 1.039 8.713 1.396.011 0 .019.005.028.005l.007-.001c2.13.243 4.341.433 6.61.568.018 0 .032.009.05.009.009 0 .016-.005.025-.005 1.633.096 3.288.167 4.963.204 1.025.025 2.032.039 3.012.039.7 0 1.417-.009 2.141-.022 9.688-.149 18.667-1.301 24.915-3.086.288-.082.569-.166.846-.25.17-.052.343-.102.507-.154.483-.155.945-.314 1.392-.479l.228-.088c.378-.143.74-.291 1.087-.441.1-.045.203-.087.3-.131.369-.167.727-.337 1.057-.515.149-.079.279-.16.419-.24.16-.092.32-.185.468-.28.084-.053.184-.104.264-.157 5.969 1.294 7.543 2.71 7.694 3.262zM36 2.666c21.985 0 33.105 3.462 33.313 5.449-.161.901-2.208 2.092-5.832 3.212-4.717 1.457-12.099 2.791-21.453 3.205-.479.02-.956.04-1.444.056a148.242 148.242 0 0 1-4.584.079 148.405 148.405 0 0 1-4.584-.079c-.49-.015-.967-.036-1.444-.056-9.355-.414-16.738-1.748-21.454-3.205-3.625-1.12-5.67-2.311-5.831-3.212C2.894 6.128 14.014 2.666 36 2.666zM2.666 17.328v-5.521c1.066.67 2.415 1.282 4.001 1.834v6.384c-2.594-.972-3.998-1.947-4.001-2.697zM9.125 35.78c.02.021.051.04.071.061 1.825 1.843 5.605 3.291 10.31 4.371.108.025.223.049.332.075.346.077.696.153 1.051.226 4.321.92 9.48 1.585 15.1 1.915l.009.001.006-.001c1.805.105 3.652.179 5.537.211a121.078 121.078 0 0 0 5.283-.006c1.744-.036 3.463-.108 5.157-.206.007 0 .012.004.019.004.012 0 .021-.007.033-.007 5.635-.332 10.921-1.004 15.392-1.971-.968.507-2.293 1.031-3.944 1.541-4.98 1.539-12.933 2.94-23.041 3.266-.3.009-.596.02-.9.028-.327.008-.659.013-.991.02-.838.013-1.682.025-2.549.025a142.837 142.837 0 0 1-4.584-.079c-.49-.014-.967-.036-1.444-.056-9.355-.413-16.738-1.748-21.454-3.205-3.666-1.133-5.718-2.339-5.837-3.244.148-.501 1.496-1.756 6.444-2.969zM2.666 47.995v-5.522c1.066.671 2.415 1.283 4.001 1.835v6.358l-.762-.295-.016.016c-2.093-.868-3.22-1.72-3.223-2.392zm4.001 14.666V57.14c1.065.67 2.414 1.283 4 1.835v6.383c-2.594-.972-3.998-1.946-4-2.697zm62.666 2.697v-6.382c1.586-.552 2.935-1.164 4-1.835v5.518c-.001.75-1.407 1.726-4 2.699zm3.983-11.922c-.146.903-2.193 2.1-5.835 3.225-4.717 1.458-12.098 2.792-21.453 3.205-.479.02-.956.041-1.444.057-.399.013-.799.025-1.205.036-1.105.024-2.224.041-3.379.041-1.155 0-2.276-.017-3.382-.043-.401-.009-.797-.023-1.193-.036-.492-.016-.972-.036-1.453-.056-9.355-.413-16.736-1.748-21.454-3.205-3.526-1.09-5.564-2.247-5.819-3.14a41.424 41.424 0 0 0 1.359.444c.36.111.728.217 1.106.321l.432.119c.213.057.432.112.65.168 4.856 1.244 11.055 2.125 17.747 2.521l.007.002.004-.002c2.067.123 4.177.199 6.311.224.567.011 1.131.016 1.685.016.735 0 1.487-.009 2.248-.023 1.945-.032 3.865-.104 5.742-.215l.011.002c.007 0 .011-.004.017-.004 2.287-.137 4.501-.333 6.627-.577.008 0 .015.004.023.004.029 0 .053-.015.082-.017a96.898 96.898 0 0 0 8.248-1.302c3.938-.808 7.346-1.854 9.684-3.152.128-.069.249-.141.37-.212.148-.088.289-.177.427-.268.127-.082.276-.163.393-.247 2.632.939 3.357 1.779 3.444 2.114zm.017-17.411v-6.382c1.586-.552 2.935-1.164 4-1.835v5.517c-.001.751-1.406 1.727-4 2.7z"/>
</svg>
