<svg xmlns="http://www.w3.org/2000/svg" width="84" height="98">
    <path fill="#81B526" fill-rule="evenodd" d="M83.304 25.155L73.022 44.431c2.104.473 3.739 2.483 3.739 4.73v13.836h1.986c1.052 0 1.87.828 1.87 1.892v14.072c0 1.064-.818 1.892-1.87 1.892h-1.986v12.299c0 2.72-2.103 4.848-4.79 4.848H4.79C2.103 98 0 95.872 0 93.152V40.528c0-2.72 2.103-4.848 4.79-4.848h21.031L43.112 3.16C44.631.322 48.487-.861 51.291.677l29.56 16.2c2.92 1.656 3.972 5.322 2.453 8.278zm-6.66 51.914h.117V66.781H65.662c-1.052 0-1.87.828-1.87 1.892v6.504c0 1.064.818 1.892 1.87 1.892h10.982zM3.621 93.152c0 .591.468 1.064 1.052 1.064h67.181c.584 0 1.051-.473 1.051-1.064V80.853h-7.243c-3.038 0-5.609-2.483-5.609-5.676v-6.504c0-3.075 2.454-5.676 5.609-5.676h7.127V49.161c0-.591-.468-1.064-1.052-1.064H4.673c-.584 0-1.052.473-1.052 1.064v43.991zm1.052-53.688c-.584 0-1.052.591-1.052.946v3.902c.351-.118.702-.118 1.052-.118h16.474l2.57-4.73H4.673zM49.538 3.988c-1.051-.592-2.453-.118-3.037.946L25.47 44.312h6.426L52.459 5.643l-2.921-1.655zm6.31 3.547L36.102 44.312h5.258L59.82 9.664l-3.972-2.129zm23.133 12.772l-15.89-8.751-17.525 32.756h23.133l11.217-21.049c.584-1.064.233-2.483-.935-2.956zm-5.258 10.288c-.934 1.537-2.57 2.602-4.439 2.602-.818 0-1.636-.237-2.337-.592l-.935-.473c-1.168-.591-2.103-1.655-2.453-2.956-.468-1.301-.234-2.72.35-3.902l1.169-2.247c1.285-2.365 4.439-3.312 6.776-2.011l.935.473c2.337 1.301 3.271 4.376 2.103 6.859l-1.169 2.247zm-2.687-5.913l-.935-.473c-.233-.118-.35-.118-.584-.118-.467 0-.934.355-1.168.71l-1.169 2.246c-.233.237-.233.592-.116.946.116.237.35.592.584.71l.935.591c.584.355 1.402.119 1.752-.473l1.168-2.247c.234-.709 0-1.419-.467-1.892z"/>
</svg>
