<svg xmlns="http://www.w3.org/2000/svg" width="96" height="86">
    <path fill="#9CB5E8" fill-rule="evenodd" d="M91.737 49.994c-1.937-1.812-3.901-2.575-4.282-2.712l-6.471-2.672-4.533-2.964v-1.508c3.386-1.754 5.851-5.019 6.477-8.888 2.843-.374 5.046-2.792 5.046-5.711 0-1.498-.58-2.864-1.529-3.89v-5.526C86.445 7.233 79.146 0 70.174 0h-1.229c-7.387 0-13.83 4.915-15.723 11.969a17.165 17.165 0 0 0-4.453-.588h-1.295c-1.623 0-3.191.23-4.679.651C40.925 4.944 34.464 0 27.055 0h-1.23c-8.971 0-16.27 7.233-16.27 16.123v5.526a5.712 5.712 0 0 0-1.529 3.89c0 2.919 2.202 5.337 5.045 5.711.626 3.869 3.092 7.134 6.477 8.888v1.508l-4.532 2.964-6.472 2.672c-.381.137-2.345.9-4.282 2.712C2.318 51.813 0 55.085 0 60.337v9.129c0 .83.679 1.504 1.516 1.504H20.55a16.514 16.514 0 0 0-.45 3.906v9.619c0 .83.678 1.505 1.515 1.505h35.614c.837 0 1.516-.672 1.516-1.502s-.679-1.502-1.516-1.502h-3.246l-1.83-11.243.715-1.889 1.082.789a1.523 1.523 0 0 0 2.261-.553l4.117-8.384 5.492 2.268c.033.013.067.026.1.037.07.023 6.948 2.411 6.948 10.855v8.12H66.58v-8.558c0-.829-.678-1.502-1.516-1.502a1.51 1.51 0 0 0-1.516 1.502v8.558h-1.603c-.837 0-1.515.672-1.515 1.502S61.108 86 61.945 86h12.439c.838 0 1.516-.692 1.516-1.521v-9.603a16.56 16.56 0 0 0-.45-3.906h19.034c.837 0 1.516-.69 1.516-1.52v-9.113c0-5.252-2.319-8.524-4.263-10.343zM80.053 29.31c0 5.078-4.169 9.21-9.293 9.21h-2.345a9.4 9.4 0 0 1-.979-.054 5.941 5.941 0 0 0-1.604-4.324v-5.854a16.67 16.67 0 0 0-1.751-7.449c3.325-.797 7.225-2.322 10.243-5.245.938 1.982 2.689 4.563 5.729 5.706v8.01zM73.42 41.234v3.07l-3.895 4.007-3.773-3.642.002-.05v-2.261-.002c.29-.299.549-.627.772-.98a12.54 12.54 0 0 0 1.889.148h2.345c.913 0 1.803-.102 2.66-.29zm-9.009-3.025c0 .758-.288 1.449-.759 1.976a1.525 1.525 0 0 0-.686.57c-.21.128-.435.234-.674.308v-5.707a2.997 2.997 0 0 1 2.119 2.853zm20.531-12.67a2.762 2.762 0 0 1-1.857 2.598V22.94a2.762 2.762 0 0 1 1.857 2.599zm-28.821-12.69c1.502-5.797 6.775-9.845 12.824-9.845h1.229c7.3 0 13.239 5.885 13.239 13.119v3.789a5.616 5.616 0 0 0-.37-.07 1.508 1.508 0 0 0-1.138-1.118c-4.243-.957-5.548-6.323-5.56-6.374a1.51 1.51 0 0 0-1.175-1.139 1.524 1.524 0 0 0-1.532.591c-2.842 3.894-7.58 5.592-11.236 6.332a17.152 17.152 0 0 0-6.334-5.124c.021-.053.039-.106.053-.161zm-8.647 1.535h1.295c7.737 0 14.031 6.238 14.031 13.904v4.094a5.918 5.918 0 0 0-.537-.102l-.014-.059a2.059 2.059 0 0 0-.019-.075l-.025-.072-.023-.063c-.01-.026-.022-.05-.034-.075a.577.577 0 0 0-.027-.056l-.04-.071-.034-.055a1.382 1.382 0 0 0-.044-.062l-.043-.057a1.433 1.433 0 0 0-.097-.11l-.046-.043a1.648 1.648 0 0 0-.062-.056l-.048-.038a1.665 1.665 0 0 0-.067-.05c-.018-.013-.037-.024-.055-.036l-.068-.041a1.436 1.436 0 0 0-.068-.034c-.021-.01-.041-.021-.062-.03-.028-.012-.056-.022-.085-.033a.826.826 0 0 0-.053-.019c-.032-.011-.065-.019-.098-.028l-.038-.01c-4.523-1.02-5.908-6.722-5.92-6.776a1.523 1.523 0 0 0-2.707-.548C47.218 31 35.707 31.069 35.533 31.069h-.008c-.052 0-.103.003-.154.008-.012.001-.024.004-.035.006a1.117 1.117 0 0 0-.116.017l-.041.01c-.035.009-.07.016-.103.027-.019.005-.036.013-.054.019-.028.01-.057.019-.085.031-.023.009-.044.02-.066.031-.022.011-.045.02-.066.032-.023.012-.044.026-.065.039-.02.012-.041.023-.06.036-.021.014-.041.03-.061.045l-.056.041-.056.05c-.017.016-.035.03-.051.047-.018.017-.033.035-.05.053-.016.018-.033.034-.048.053-.016.018-.029.038-.043.057-.015.019-.031.038-.045.059-.013.018-.024.039-.036.059-.013.021-.028.042-.039.064-.012.02-.022.042-.032.063-.011.023-.023.045-.032.068-.01.021-.017.044-.026.066l-.026.072-.018.069c-.006.025-.014.049-.019.074l-.003.014a6.152 6.152 0 0 0-.596.116v-4.107c0-7.667 6.294-13.904 14.031-13.904zm.613 47.935L44.026 58.4c.002-.029.005-.056.005-.085v-2.383-1.286c.928.211 1.892.326 2.884.326h2.471c.962 0 1.899-.108 2.802-.306l.083-.004v3.353l-4.184 4.304zm2.244 5.695l-.788 2.082h-2.825l-.892-2.108 2.234-1.63 2.271 1.656zm-22.61-12.29h-2.576l-.709-1.873 2.062-1.503 2.026 1.477-.803 1.899zm.2 5.968a14.537 14.537 0 0 0-3.356 2.344l-.051.05.872-5.358h2.052l.483 2.964zm-1.447-13.381l-3.894-4.007v-3.07c.857.188 1.746.29 2.66.29h2.345c.727 0 1.452-.063 2.164-.188.149.241.315.471.496.687v2.597l.002.049-3.773 3.642zm6.344-1.93c.352-.34.5-.807.446-1.256l1.331.87c.145.459.318.905.511 1.339l-2.733 5.569-3.595-2.622 4.04-3.9zm-.928-8.171c0-1.339.893-2.475 2.119-2.854v5.707a2.997 2.997 0 0 1-2.119-2.853zm-.854 17.447l1.005.733a1.526 1.526 0 0 0 1.262.249c.437-.107.803-.4.999-.802l2.693-5.484a12.958 12.958 0 0 0 4.004 3.19v1.564l-4.859 3.177a1.551 1.551 0 0 0-.196.065l-5.15 2.126-.499-3.065.741-1.753zm10.009 3.019a1.488 1.488 0 0 0 .412 1.437l4.326 4.176-3.943 2.876-3.348-6.819 2.553-1.67zm8.341-6.708h-2.47c-5.445 0-9.874-4.389-9.874-9.784v-8.175c3.251-.234 10.943-1.321 16.127-6.415.973 2.099 2.827 4.888 6.092 6.092v8.498c-.001 5.395-4.43 9.784-9.875 9.784zM12.914 28.137a2.762 2.762 0 0 1-1.857-2.598c0-1.2.777-2.22 1.857-2.599v5.197zm1.556-9.451h-.006l-.017.001-.017-.001c-.716 0-1.315.493-1.473 1.155-.125.02-.249.044-.371.071v-3.789c0-7.234 5.939-13.119 13.239-13.119h1.23c6.048 0 11.322 4.048 12.823 9.845.024.09.056.175.094.257a17.154 17.154 0 0 0-5.238 3.951c-1.747-1.805-2.355-4.322-2.361-4.346a1.521 1.521 0 0 0-2.706-.548c-4.715 6.459-15.045 6.522-15.196 6.522l-.001.001zm1.476 10.624v-7.685c2.982-.225 9.755-1.229 14.413-5.69.545 1.13 1.364 2.449 2.549 3.556a16.695 16.695 0 0 0-2.497 8.797v5.917a5.935 5.935 0 0 0-1.547 4.224c-.423.058-.85.091-1.279.091h-2.346c-5.124 0-9.293-4.132-9.293-9.21zm3.636 15.913c.057.265.186.52.39.729l4.223 4.345-3.572 2.605-3.107-6.328 2.066-1.351zm1.229 22.743h-8.935v-8.044c0-.83-.678-1.502-1.516-1.502-.836 0-1.515.672-1.515 1.502v8.044H3.031v-7.629c0-7.888 6.281-10.14 6.541-10.23a1.22 1.22 0 0 0 .101-.037l5.145-2.124 3.875 7.892a1.514 1.514 0 0 0 1.363.845c.32 0 .635-.1.898-.292l.944-.689.636 1.679-1.723 10.585zm21.507 15.03h-9.867v-8.558a1.51 1.51 0 0 0-1.516-1.502c-.837 0-1.515.673-1.515 1.502v8.558h-6.289v-8.12c0-8.372 6.671-10.76 6.948-10.855a1.2 1.2 0 0 0 .1-.037l5.594-2.31L39.91 70.1a1.514 1.514 0 0 0 1.362.846c.321 0 .636-.101.899-.293l1.143-.833.829 1.963-1.825 11.213zm3.071 0L47 73.1h2.301l1.612 9.896h-5.524zm8.892-15.831l-1.195-.872-.009-.007-2.714-1.979 4.515-4.644c.234-.241.37-.54.41-.848l2.341 1.53-3.348 6.82zm10.925-6.689l-5.086-2.1-4.813-3.148-.004-.003v-1.681a12.971 12.971 0 0 0 3.81-2.969l2.584 5.263a1.515 1.515 0 0 0 1.363.845c.32 0 .636-.101.898-.293l1.006-.733.741 1.754-.499 3.065zm-1.579-7.574l-2.578-5.249c.292-.609.535-1.245.728-1.901l.958-.627c-.054.449.094.916.446 1.256l4.04 3.9-3.594 2.621zm7.807 11.134a14.506 14.506 0 0 0-3.356-2.344l.483-2.964h2.053l.872 5.358-.052-.05zm-.58-8.312h-2.575l-.803-1.899 2.026-1.477 2.062 1.504-.71 1.872zm.949-5.427l4.224-4.345c.204-.21.333-.464.39-.729l2.066 1.351-3.107 6.328-3.573-2.605zm15.352 17.669v-8.044c0-.83-.679-1.502-1.516-1.502-.838 0-1.516.672-1.516 1.502v8.044h-8.935l-1.723-10.585.636-1.679.944.689a1.522 1.522 0 0 0 2.261-.553l3.875-7.892 5.145 2.124a1.2 1.2 0 0 0 .1.037c.065.022 6.541 2.27 6.541 10.23v7.629h-5.812z"/>
</svg>
