<svg xmlns="http://www.w3.org/2000/svg" width="80" height="72">
    <path fill="#799ADE" fill-rule="evenodd" d="M79.985 24c-.132-2.281-2.845-4.064-8.272-5.424.183-.4.286-.816.287-1.248V8h-.023C71.5.229 39.657 0 36 0 32.343 0 .5.229.023 8H0v9.332c.006 2.533 3.276 4.516 8.14 5.992a2.89 2.89 0 0 0-.12.676H8v9.316C2.76 34.665.142 36.422.013 38.667H0v9.331c.004 1.765 1.595 3.261 4.197 4.507a2.92 2.92 0 0 0-.177.829H4V62.666c.011 4.435 9.996 7.189 21.091 8.474.081.016.156.049.242.049.025 0 .047-.013.072-.015 2.139.242 4.312.43 6.463.564.045.006.085.027.132.027.025 0 .045-.013.069-.014C34.8 71.916 37.487 72 40 72s5.2-.084 7.93-.251c.025.002.046.015.07.015.047 0 .087-.023.132-.027 2.151-.135 4.324-.321 6.463-.564.025 0 .046.014.072.014.086 0 .161-.034.242-.05 11.095-1.285 21.079-4.04 21.091-8.476v-9.328h-.022c-.093-1.634-1.486-2.998-4.238-4.138.168-.386.26-.786.26-1.2V39.28c4.786-1.472 7.993-3.442 8-5.952V24h-.015zM69.189 48.428l-.454.399c-.7.617-1.867 1.24-3.402 1.84v-6.358c1.585-.552 2.935-1.164 4-1.834v5.517c0 .137-.05.284-.144.436zm-29.821 6.196c-.195.005-.391.008-.587.012-.476.009-.964.012-1.447.016v-6.66c.367-.004.734-.01 1.101-.016l.211-.004c1.343-.026 2.686-.067 4.022-.128v6.657a118.596 118.596 0 0 1-3.3.123zm-5.823.019c-.61-.011-1.219-.026-1.822-.045l-.224-.007a136.1 136.1 0 0 1-2.164-.09v-6.656a137.511 137.511 0 0 0 4.232.132c.366.007.733.012 1.1.016v6.664c-.259-.002-.518-.002-.775-.007-.118-.002-.231-.006-.347-.007zM9.462 51.602a4.854 4.854 0 0 0-.129-.037v-6.441a59.77 59.77 0 0 0 4 .921v6.508a61.667 61.667 0 0 1-3.381-.813c-.163-.047-.331-.091-.49-.138zm28.104 11.042c.367.007.734.012 1.101.016v6.665c-1.843-.017-3.622-.07-5.334-.155v-6.657a137.691 137.691 0 0 0 4.233.131zm5.079-.004c1.343-.025 2.686-.067 4.021-.128v6.657c-1.712.084-3.49.138-5.333.155v-6.665c.367-.004.734-.01 1.1-.017l.212-.002zm10.688-.603v6.621a114.45 114.45 0 0 1-4 .351V62.36c1.352-.088 2.688-.196 4-.323zM56 61.749a98.41 98.41 0 0 0 4-.562v6.546a92.936 92.936 0 0 1-4 .611v-6.595zm6.666-1.039a59.19 59.19 0 0 0 4.001-.921v6.441a57.83 57.83 0 0 1-4.001.988V60.71zm-45.333 0v6.508a57.794 57.794 0 0 1-4-.988v-6.441c1.246.336 2.584.644 4 .921zm2.667.478c1.291.209 2.625.397 4 .563v6.594a91.166 91.166 0 0 1-4-.611v-6.546zm6.666.849c1.312.127 2.649.235 4 .324v6.649a117.212 117.212 0 0 1-4-.35v-6.623zm-3.307-7.973l-.406-.041c-.096-.01-.19-.022-.286-.031v-6.62c1.312.127 2.648.234 3.999.324v6.644c-1.119-.08-2.226-.171-3.307-.276zM20 47.083v6.594a92.747 92.747 0 0 1-4-.61V46.52c1.29.209 2.625.398 4 .563zm26.221 7.194c-.293.023-.589.046-.888.067v-6.649a130.6 130.6 0 0 0 4-.324v6.621c-.824.086-1.666.168-2.532.239-.193.017-.386.031-.58.046zm5.779-.6v-6.594c1.374-.166 2.709-.354 4-.563v6.547a91.445 91.445 0 0 1-4 .61zm6.666-7.633a59.77 59.77 0 0 0 4-.921v6.441a58.228 58.228 0 0 1-4 .988v-6.508zm-18.233-6.091a123.038 123.038 0 0 1-2.945-.111l-.155-.006v-6.658c1.336.063 2.679.104 4.021.129l.211.004 1.1.016v6.657c-.649-.007-1.304-.009-1.937-.024l-.295-.007zm-31.1-19.054v-6.442c1.245.336 2.584.643 4 .921v6.508l-.493-.103a56.672 56.672 0 0 1-3.507-.884zm24.234-3.589c.366.007.733.013 1.1.016v6.658a131.635 131.635 0 0 1-5.334-.152V17.18c1.336.063 2.679.104 4.021.128l.213.002zm5.078-.004c1.343-.025 2.685-.066 4.021-.127v6.651c-.226.011-.443.027-.671.038l-.058.002c-.895.041-1.806.07-2.731.091l-.432.01c-.474.009-.959.01-1.441.016v-6.661a100.5 100.5 0 0 0 1.312-.02zm30.383.67l-.037-.008-.486.377c-.704.548-1.785 1.103-3.172 1.639v-6.343c1.585-.552 2.935-1.164 4-1.834v5.517c0 .203-.106.421-.305.652zM52 23.002v-6.586a96.893 96.893 0 0 0 4-.563v6.536c-1.264.224-2.595.43-4 .613zm6.666-1.126v-6.498a59.156 59.156 0 0 0 4-.921v6.427c-1.194.348-2.539.68-4 .992zm-9.333-5.172v6.613c-1.288.136-2.621.255-4 .353v-6.642c1.352-.09 2.688-.198 4-.324zM22.667 23.32v-6.616c1.312.126 2.648.234 3.999.324v6.637a120.931 120.931 0 0 1-3.999-.345zM20 16.416v6.588c-.264-.035-.539-.063-.8-.099l-.502-.073a99.123 99.123 0 0 1-2.262-.353L16 22.401v-6.547a96.44 96.44 0 0 0 4 .562zm14.336 23.236l-.54-.04c-.853-.067-1.687-.14-2.5-.221l-.523-.054c-.036-.004-.071-.009-.107-.012v-6.621c1.312.127 2.648.235 4.001.324v6.645c-.109-.008-.223-.013-.331-.021zm-8.81-.996c-.528-.084-1.023-.175-1.526-.263v-6.538a98.41 98.41 0 0 0 4 .562v6.595a102.613 102.613 0 0 1-2.474-.356zm-4.193-7.279v6.497a56.294 56.294 0 0 1-4-1.001v-6.417c1.246.336 2.584.644 4 .921zm-6.667-1.736v6.335c-2.096-.81-3.447-1.636-3.888-2.372l-.089-.149c-.008-.042-.021-.086-.022-.127v-5.522c1.065.671 2.414 1.283 3.999 1.835zm31.979 3.666a149.09 149.09 0 0 0 4.022-.129v6.651c-1.753.087-3.534.135-5.334.153v-6.655l1.1-.016.212-.004zm17.231 5.115a80.95 80.95 0 0 1-2.844.448c-.338.048-.688.09-1.031.134v-6.588a98.135 98.135 0 0 0 4-.563V38.4a2.99 2.99 0 0 1-.125.022zm-9.028 1.139c-.498.042-1.011.068-1.515.104v-6.637a127.51 127.51 0 0 0 4-.324v6.615c-.774.081-1.548.162-2.344.229l-.141.013zm15.237-2.5c-.664.186-1.367.359-2.084.528-.332.077-.671.155-1.017.23-.103.022-.212.042-.316.065v-6.505a59.753 59.753 0 0 0 4-.922v6.441l-.583.163zm7.233-12.974c-.122.905-2.174 2.109-5.837 3.241-4.717 1.457-12.099 2.792-21.453 3.205-.479.02-.956.04-1.444.056-.399.014-.799.026-1.206.036-1.104.024-2.224.042-3.378.042-1.155 0-2.275-.018-3.379-.043-.405-.009-.805-.023-1.205-.036-.489-.015-.967-.036-1.444-.056-9.355-.413-16.738-1.748-21.453-3.206-3.634-1.122-5.682-2.317-5.834-3.218.007-.026.007-.047.023-.079.09.023.192.042.284.064.521.124 1.056.244 1.6.359 2.649.57 5.585 1.039 8.713 1.396.011 0 .019.005.028.005l.007-.001c2.13.243 4.341.433 6.61.568.018 0 .032.009.05.009.009 0 .016-.005.025-.005 1.634.096 3.288.167 4.963.204a111.017 111.017 0 0 0 5.153.017c9.688-.149 18.667-1.301 24.915-3.086.288-.082.569-.166.846-.25.17-.052.343-.102.507-.154.483-.155.946-.314 1.392-.479l.228-.088c.378-.143.74-.291 1.087-.442.1-.043.203-.086.3-.13.369-.167.727-.337 1.057-.515.149-.079.279-.16.419-.24.16-.092.32-.185.468-.28.084-.053.184-.104.264-.157 5.969 1.295 7.543 2.71 7.694 3.263zM36 2.666c21.985 0 33.105 3.462 33.313 5.449-.161.901-2.208 2.092-5.832 3.212-4.717 1.457-12.098 2.791-21.453 3.205-.479.02-.956.04-1.444.056a148.49 148.49 0 0 1-4.584.078 148.49 148.49 0 0 1-4.584-.078c-.49-.015-.967-.036-1.444-.056-9.355-.414-16.738-1.748-21.454-3.205-3.625-1.12-5.67-2.311-5.832-3.212C2.894 6.128 14.014 2.666 36 2.666zM2.666 17.328v-5.521c1.066.67 2.415 1.282 4.001 1.834v6.384c-2.594-.972-3.998-1.946-4.001-2.697zM9.125 35.78c.02.021.051.04.071.061 1.825 1.843 5.605 3.291 10.31 4.371l.332.074c.346.078.697.154 1.051.227 4.322.92 9.48 1.585 15.1 1.915l.009.001.006-.001c1.805.105 3.652.178 5.537.211a121.078 121.078 0 0 0 5.283-.006c1.744-.036 3.462-.108 5.157-.206.007 0 .012.003.019.003.012 0 .021-.006.033-.006 5.635-.332 10.921-1.004 15.392-1.971-.968.507-2.293 1.031-3.944 1.542-4.98 1.538-12.933 2.939-23.041 3.265-.3.009-.596.02-.9.028-.327.008-.659.013-.991.02-.838.013-1.682.025-2.549.025a142.837 142.837 0 0 1-4.584-.079c-.49-.014-.967-.036-1.444-.056-9.355-.413-16.738-1.747-21.454-3.205-3.666-1.133-5.718-2.338-5.837-3.244.148-.501 1.496-1.756 6.444-2.969zM2.666 47.995v-5.522c1.066.671 2.415 1.283 4.001 1.835v6.359l-.762-.296-.016.016c-2.093-.868-3.22-1.72-3.223-2.392zm4.001 14.666V57.14c1.065.671 2.414 1.282 4 1.834v6.384c-2.594-.972-3.998-1.946-4-2.697zm62.666 2.697v-6.382c1.586-.552 2.935-1.164 4-1.835v5.518c-.001.75-1.407 1.726-4 2.699zm3.983-11.922c-.145.903-2.193 2.1-5.835 3.225-4.717 1.458-12.098 2.792-21.453 3.206-.479.02-.956.04-1.444.056-.399.013-.799.025-1.205.036A161.24 161.24 0 0 1 40 60c-1.155 0-2.276-.018-3.382-.043-.401-.009-.797-.023-1.193-.036-.492-.016-.972-.036-1.453-.056-9.355-.413-16.736-1.748-21.453-3.205-3.527-1.09-5.564-2.247-5.82-3.14.397.138.809.273 1.231.405l.128.039c.36.111.729.217 1.106.321l.432.119c.213.057.432.112.65.168 4.857 1.244 11.055 2.125 17.747 2.521l.007.001.004-.001c2.066.123 4.177.199 6.311.224.567.011 1.131.016 1.685.016.735 0 1.487-.009 2.248-.023 1.945-.031 3.865-.103 5.743-.216.004 0 .006.003.01.003.007 0 .011-.004.017-.004 2.287-.137 4.501-.333 6.627-.577.008 0 .015.004.023.004.029 0 .053-.015.082-.017a96.807 96.807 0 0 0 8.248-1.302c3.938-.808 7.346-1.854 9.684-3.152.128-.069.249-.141.37-.212.148-.088.289-.177.427-.268.128-.082.275-.163.393-.246 2.632.938 3.357 1.778 3.444 2.113zm.017-17.411v-6.382c1.586-.552 2.935-1.165 4-1.835v5.517c-.001.751-1.406 1.727-4 2.7z"/>
</svg>
